<?xml version="1.0" encoding="iso-8859-1"?>
<!-- Generator: Adobe Illustrator 19.0.0, SVG Export Plug-In . SVG Version: 6.00 Build 0)  -->
<svg version="1.1" id="Capa_1" xmlns="http://www.w3.org/2000/svg" xmlns:xlink="http://www.w3.org/1999/xlink" x="0px" y="0px"
	 viewBox="0 0 512 512" style="enable-background:new 0 0 512 512;" xml:space="preserve">
<g>
	<g>
		<path d="M0,257v30h75c8.291,0,15,6.709,15,15c0,8.291-6.709,15-15,15H0v30h75c8.291,0,15,6.709,15,15c0,8.291-6.709,15-15,15H0v30
			h120V257H0z"/>
	</g>
</g>
<g>
	<g>
		<path d="M182,362c0-88.38,64.069-161.918,148.167-177.01C324.874,166.028,307.629,152,287,152h-15v-32H60v32H45
			c-24.814,0-45,20.186-45,45v30h135c8.291,0,15,6.709,15,15v180c0,8.291-6.709,15-15,15H0v30c0,24.814,20.186,45,45,45
			l217.671-0.026C214.108,479.704,182,424.556,182,362z"/>
	</g>
</g>
<g>
	<g>
		<path d="M362,332c-16.538,0-30,13.462-30,30c0,16.538,13.462,30,30,30c16.538,0,30-13.462,30-30C392,345.462,378.538,332,362,332z
			"/>
	</g>
</g>
<g>
	<g>
		<path d="M377,213.516v90.613c10.666,2.772,20.242,8.232,27.742,15.866l78.635-45.399C458.907,240.725,420.731,217.943,377,213.516
			z"/>
	</g>
</g>
<g>
	<g>
		<path d="M498.481,300.522l-78.898,45.553C420.998,351.18,422,356.45,422,362s-1.002,10.822-2.417,15.925l78.9,45.549
			C506.996,404.664,512,383.953,512,362C512,340.046,506.994,319.335,498.481,300.522z"/>
	</g>
</g>
<g>
	<g>
		<path d="M304.417,346.075l-78.9-45.549C217.004,319.336,212,340.047,212,362c0,21.954,5.006,42.665,13.519,61.478l78.898-45.553
			C303.002,372.82,302,367.55,302,362S303.002,351.178,304.417,346.075z"/>
	</g>
</g>
<g>
	<g>
		<path d="M404.744,404.003c-7.5,7.635-17.078,13.095-27.744,15.867v90.613c43.733-4.427,81.91-27.211,106.379-61.084
			L404.744,404.003z"/>
	</g>
</g>
<g>
	<g>
		<path d="M319.258,404.004l-78.635,45.4c24.47,33.871,62.646,56.653,106.377,61.08V419.87
			C336.334,417.098,326.758,411.638,319.258,404.004z"/>
	</g>
</g>
<g>
	<g>
		<path d="M240.619,274.601l78.636,45.396c7.501-7.635,17.079-13.095,27.745-15.867v-90.613
			C303.267,217.944,265.088,240.728,240.619,274.601z"/>
	</g>
</g>
<g>
	<g>
		<path d="M257,0H75C50.147,0,30,20.147,30,45v30c0,8.284,6.716,15,15,15h242c8.284,0,15-6.716,15-15V45C302,20.147,281.853,0,257,0
			z"/>
	</g>
</g>
<g>
</g>
<g>
</g>
<g>
</g>
<g>
</g>
<g>
</g>
<g>
</g>
<g>
</g>
<g>
</g>
<g>
</g>
<g>
</g>
<g>
</g>
<g>
</g>
<g>
</g>
<g>
</g>
<g>
</g>
</svg>
