<svg viewBox="0 0 512 512" xmlns="http://www.w3.org/2000/svg"><path d="m45 452h227c0-3.332031 0-63.246094 0-60h-272v15c0 24.8125 20.1875 45 45 45zm0 0"/><path d="m467 152h-120c-24.851562 0-45 20.148438-45 45v15h210v-15c0-24.851562-20.148438-45-45-45zm0 0"/><path d="m302 467c0 24.851562 20.148438 45 45 45h120c24.851562 0 45-20.148438 45-45v-15h-210zm0 0"/><path d="m302 422h210v-180h-210zm49.394531-100.605469c5.859375-5.859375 15.351563-5.859375 21.210938 0l19.394531 19.394531 49.394531-49.394531c5.859375-5.859375 15.351563-5.859375 21.210938 0s5.859375 15.351563 0 21.210938l-60 60c-5.859375 5.859375-15.351563 5.859375-21.210938 0l-30-30c-5.859375-5.859375-5.859375-15.351563 0-21.210938zm0 0"/><path d="m272 197c0-41.351562 33.648438-75 75-75h15v-77c0-24.8125-20.1875-45-45-45h-272c-24.8125 0-45 20.1875-45 45v317h272c0-5.425781 0-165 0-165zm-34.394531 10.605469-60 60c-5.859375 5.859375-15.351563 5.859375-21.210938 0l-30-30c-5.859375-5.859375-5.859375-15.351563 0-21.210938s15.351563-5.859375 21.210938 0l19.394531 19.394531 49.394531-49.394531c5.859375-5.859375 15.351563-5.859375 21.210938 0s5.859375 15.351563 0 21.210938zm0 0"/></svg>