<?xml version="1.0"?>
<svg xmlns="http://www.w3.org/2000/svg" height="512px" viewBox="0 0 512 512" width="512px"><path d="m472 332v-252c0-22.054688-17.945312-40-40-40h-352c-22.054688 0-40 17.945312-40 40v352c0 22.054688 17.945312 40 40 40h352c22.054688 0 40-17.945312 40-40 0-11.046875 8.953125-20 20-20s20 8.953125 20 20c0 44.113281-35.886719 80-80 80h-352c-44.113281 0-80-35.886719-80-80v-352c0-44.113281 35.886719-80 80-80h352c44.113281 0 80 35.886719 80 80v252c0 11.046875-8.953125 20-20 20s-20-8.953125-20-20zm-271-56c11.046875 0 20-8.953125 20-20s-8.953125-20-20-20-20 8.953125-20 20 8.953125 20 20 20zm110 0c11.046875 0 20-8.953125 20-20s-8.953125-20-20-20-20 8.953125-20 20 8.953125 20 20 20zm-205 54.878906v-54.878906h-10c-11.046875 0-20-8.953125-20-20s8.953125-20 20-20h10v-54.878906c0-3.507813.925781-6.957032 2.679688-10 14.664062-25.402344 35.769531-46.714844 61.035156-61.625 26.050781-15.371094 55.886718-23.496094 86.285156-23.496094s60.234375 8.125 86.285156 23.5c25.265625 14.910156 46.371094 36.21875 61.035156 61.625 1.753907 3.039062 2.679688 6.488281 2.679688 9.996094v54.878906h10c11.046875 0 20 8.953125 20 20s-8.953125 20-20 20h-10v54.878906c0 3.507813-.925781 6.957032-2.679688 10-14.664062 25.402344-35.769531 46.714844-61.035156 61.625-26.050781 15.371094-55.886718 23.496094-86.285156 23.496094s-60.234375-8.125-86.285156-23.5c-25.265625-14.910156-46.371094-36.21875-61.035156-61.625-1.753907-3.039062-2.679688-6.488281-2.679688-9.996094zm40-5.566406c20.140625 31.875 53.203125 53.34375 90 59.117188v-8.429688c0-11.046875 8.953125-20 20-20s20 8.953125 20 20v8.429688c36.796875-5.773438 69.859375-27.242188 90-59.117188v-138.625c-20.140625-31.875-53.203125-53.34375-90-59.117188v8.429688c0 11.046875-8.953125 20-20 20s-20-8.953125-20-20v-8.429688c-36.796875 5.773438-69.859375 27.242188-90 59.117188zm0 0" fill="#006DF0"/></svg>
