<?xml version="1.0" ?><svg id="Слой_1" style="enable-background:new 0 0 200 200;" version="1.1" viewBox="0 0 200 200" xml:space="preserve" xmlns="http://www.w3.org/2000/svg" xmlns:xlink="http://www.w3.org/1999/xlink"><style type="text/css">
	.st0{fill:url(#SVGID_1_);}
	.st1{fill:url(#SVGID_2_);}
	.st2{fill:url(#SVGID_3_);}
	.st3{fill:url(#SVGID_4_);}
	.st4{fill:url(#SVGID_5_);}
</style><g><linearGradient gradientUnits="userSpaceOnUse" id="SVGID_1_" x1="49.1603" x2="75.5618" y1="37.9223" y2="37.9223"><stop offset="0" style="stop-color:#F7931E"/><stop offset="1" style="stop-color:#AF1259"/></linearGradient><circle class="st0" cx="62.4" cy="37.9" r="13.2"/><linearGradient gradientUnits="userSpaceOnUse" id="SVGID_2_" x1="27.6708" x2="38.1086" y1="45.9041" y2="45.9041"><stop offset="0" style="stop-color:#F7931E"/><stop offset="1" style="stop-color:#AF1259"/></linearGradient><circle class="st1" cx="32.9" cy="45.9" r="5.2"/><linearGradient gradientUnits="userSpaceOnUse" id="SVGID_3_" x1="123.7599" x2="140.9515" y1="161.3339" y2="161.3339"><stop offset="0" style="stop-color:#F7931E"/><stop offset="1" style="stop-color:#AF1259"/></linearGradient><circle class="st2" cx="132.4" cy="161.3" r="8.6"/><linearGradient gradientUnits="userSpaceOnUse" id="SVGID_4_" x1="56.0538" x2="153.5534" y1="103.227" y2="103.227"><stop offset="0" style="stop-color:#F7931E"/><stop offset="1" style="stop-color:#AF1259"/></linearGradient><path class="st3" d="M121,79.8c-0.1,0.1-0.3,0.2-0.3,0.3l-39.8,26.4c1,3.3,5.7,19.3,6,20.3c0,0.1,0,0.1,0,0.1   c0.3-3.6,1.1-11.6,1.5-16.3c0-0.1,0-0.1,0-0.1v-0.1c0.1-0.1,0.1-0.1,0.1-0.2c0.1,0,0.1-0.1,0.1-0.1l0.1-0.1c0-0.1,0-0.1,0-0.1   c6.1-5.5,15.3-13.9,22.3-20.4l10.1-9.4c0.2-0.2,0.3-0.4,0.3-0.5c-0.1,0.1-0.1,0.1-0.2,0.1C121.1,79.7,121.1,79.8,121,79.8z"/><linearGradient gradientUnits="userSpaceOnUse" id="SVGID_5_" x1="14.2508" x2="188.2492" y1="103.1922" y2="103.1922"><stop offset="0" style="stop-color:#F7931E"/><stop offset="1" style="stop-color:#AF1259"/></linearGradient><path class="st4" d="M129.6,30.9c-15.4,0-29.4,5.9-39.8,15.6c-9.8,9.1-22.4,14.5-35.7,14.7c-0.3,0-0.6,0-0.9,0   c-21.6,0.8-39,18.8-39,40.5c0,15.2,9,29.1,21.3,36c9.1,5.1,16.3,12.8,21.6,21.7c5.8,9.8,16.2,16,28.4,16c13,0,24.3-7.5,29.7-18.5   c2.7-5.5,8.2-8.9,14.4-8.9c0,0,0.1,0,0.1,0c32.6,0,59-26.7,58.6-59.4C187.8,56.8,161.5,30.9,129.6,30.9z M135.9,70.7   c-0.1,0.6-0.3,1.5-0.4,2.7c-0.8,4.7-2.3,13.4-4,22.4c-1.8,9.1-4.1,20-6.9,32.3c-0.2,0.6-0.3,0.9-0.3,1c-0.4,2.3-1.7,3.9-3.4,4.5   c-0.5,0.2-1,0.3-1.5,0.3c-1.5,0-3.2-0.8-4.8-2.1l-0.1-0.1c-0.7-0.7-7.9-6.4-14.4-11.6c-1.5,1.6-6.8,7.2-9.9,9.7   c-0.6,0.4-1.3,0.7-1.8,0.7c-0.4,0-0.8-0.1-1-0.3c-0.2-0.1-0.3-0.3-0.4-0.3c-0.5-0.3-1.5-1.2-1.8-2.7c-0.3-1-5.2-17.6-6-20.5   c-2.4-0.8-13.9-4.6-16.5-5.9c-2.4-1.1-3.7-2.4-3.6-3.9c0.2-2.3,3.6-3.8,5.2-4.3c1.4-0.7,13.4-6,28.1-12.1   c16.4-6.8,34.9-13.8,37-14.4c3-0.9,4.8-0.8,5.8,0.1C136.3,67.1,136.2,69,135.9,70.7z"/></g></svg>